<mxfile host="Electron" modified="2024-06-07T15:30:57.326Z" agent="Mozilla/5.0 (Windows NT 10.0; Win64; x64) AppleWebKit/537.36 (KHTML, like Gecko) draw.io/24.4.8 Chrome/124.0.6367.207 Electron/30.0.6 Safari/537.36" etag="iuPktFg67_axln3zqu8A" version="24.4.8" type="device">
  <diagram name="Página-1" id="eiJYBSDj7Dkt1DtOxY7t">
    <mxGraphModel dx="1235" dy="731" grid="1" gridSize="10" guides="1" tooltips="1" connect="1" arrows="1" fold="1" page="1" pageScale="1" pageWidth="1200" pageHeight="1650" math="0" shadow="0">
      <root>
        <mxCell id="0" />
        <mxCell id="1" parent="0" />
        <mxCell id="tmTYmfGG59u52p8sMAlk-1" value="Módulo de Recomendación" style="whiteSpace=wrap;strokeWidth=2;verticalAlign=top;" vertex="1" parent="1">
          <mxGeometry x="600" y="20" width="507" height="1230" as="geometry" />
        </mxCell>
        <mxCell id="tmTYmfGG59u52p8sMAlk-2" value="Enviar notificación de advertencia" style="whiteSpace=wrap;strokeWidth=2;" vertex="1" parent="1">
          <mxGeometry x="680" y="364" width="261" height="33" as="geometry" />
        </mxCell>
        <mxCell id="tmTYmfGG59u52p8sMAlk-3" value="Enviar notificación de incumplimiento" style="whiteSpace=wrap;strokeWidth=2;" vertex="1" parent="1">
          <mxGeometry x="709.5" y="630" width="288" height="33" as="geometry" />
        </mxCell>
        <mxCell id="tmTYmfGG59u52p8sMAlk-4" value="Proporcionar recomendaciones sobre el personal necesario" style="whiteSpace=wrap;strokeWidth=2;" vertex="1" parent="1">
          <mxGeometry x="635" y="760" width="437" height="33" as="geometry" />
        </mxCell>
        <mxCell id="tmTYmfGG59u52p8sMAlk-5" value="Encargado de Área" style="whiteSpace=wrap;strokeWidth=2;verticalAlign=top;" vertex="1" parent="1">
          <mxGeometry x="20" y="20" width="560" height="1226" as="geometry" />
        </mxCell>
        <mxCell id="tmTYmfGG59u52p8sMAlk-6" value="Inicio" style="whiteSpace=wrap;strokeWidth=2;" vertex="1" parent="1">
          <mxGeometry x="178" y="45" width="54" height="33" as="geometry" />
        </mxCell>
        <mxCell id="tmTYmfGG59u52p8sMAlk-7" value="Monitorear progreso de tareas" style="whiteSpace=wrap;strokeWidth=2;" vertex="1" parent="1">
          <mxGeometry x="89" y="128" width="232" height="33" as="geometry" />
        </mxCell>
        <mxCell id="tmTYmfGG59u52p8sMAlk-9" value="Actualizar estado de actividades" style="whiteSpace=wrap;strokeWidth=2;" vertex="1" parent="1">
          <mxGeometry x="280" y="270" width="249" height="33" as="geometry" />
        </mxCell>
        <mxCell id="tmTYmfGG59u52p8sMAlk-10" value="Evaluar posibles retrasos o problemas" style="whiteSpace=wrap;strokeWidth=2;" vertex="1" parent="1">
          <mxGeometry x="63" y="397" width="285" height="33" as="geometry" />
        </mxCell>
        <mxCell id="tmTYmfGG59u52p8sMAlk-13" value="Revisar personal disponible y habilidades" style="whiteSpace=wrap;strokeWidth=2;" vertex="1" parent="1">
          <mxGeometry x="260" y="970" width="308" height="33" as="geometry" />
        </mxCell>
        <mxCell id="tmTYmfGG59u52p8sMAlk-14" value="Asignar más personal" style="whiteSpace=wrap;strokeWidth=2;" vertex="1" parent="1">
          <mxGeometry x="308" y="1104" width="166" height="33" as="geometry" />
        </mxCell>
        <mxCell id="tmTYmfGG59u52p8sMAlk-15" value="Fin" style="whiteSpace=wrap;strokeWidth=2;" vertex="1" parent="1">
          <mxGeometry x="214" y="1188" width="37" height="33" as="geometry" />
        </mxCell>
        <mxCell id="tmTYmfGG59u52p8sMAlk-16" value="" style="curved=1;startArrow=none;endArrow=block;exitX=0.5009982674210159;exitY=1.0121212583599668;entryX=0.5002323553479952;entryY=0.012121258359966856;rounded=0;" edge="1" parent="1" source="tmTYmfGG59u52p8sMAlk-6" target="tmTYmfGG59u52p8sMAlk-7">
          <mxGeometry relative="1" as="geometry">
            <Array as="points" />
          </mxGeometry>
        </mxCell>
        <mxCell id="tmTYmfGG59u52p8sMAlk-17" value="" style="curved=1;startArrow=none;endArrow=block;exitX=0.5002323553479952;exitY=1.0242425167199336;entryX=0.5003593762715658;entryY=-0.006060513583096591;rounded=0;" edge="1" parent="1" source="tmTYmfGG59u52p8sMAlk-7">
          <mxGeometry relative="1" as="geometry">
            <Array as="points" />
            <mxPoint x="205.05326086435116" y="212" as="targetPoint" />
          </mxGeometry>
        </mxCell>
        <mxCell id="tmTYmfGG59u52p8sMAlk-18" value="Sí" style="curved=1;startArrow=none;endArrow=block;exitX=0;exitY=0.5;rounded=0;exitDx=0;exitDy=0;entryX=0.343;entryY=-0.064;entryDx=0;entryDy=0;entryPerimeter=0;" edge="1" parent="1" source="tmTYmfGG59u52p8sMAlk-31" target="tmTYmfGG59u52p8sMAlk-10">
          <mxGeometry relative="1" as="geometry">
            <Array as="points" />
            <mxPoint x="178.14085808937648" y="244.9999999999999" as="sourcePoint" />
            <mxPoint x="170" y="400" as="targetPoint" />
          </mxGeometry>
        </mxCell>
        <mxCell id="tmTYmfGG59u52p8sMAlk-19" value="No" style="curved=1;startArrow=none;endArrow=block;exitX=1;exitY=0.5;entryX=0.4994211196899414;entryY=-0.0121210849646366;rounded=0;exitDx=0;exitDy=0;" edge="1" parent="1" source="tmTYmfGG59u52p8sMAlk-31" target="tmTYmfGG59u52p8sMAlk-9">
          <mxGeometry relative="1" as="geometry">
            <Array as="points" />
            <mxPoint x="261.2316798704992" y="244.9999999999999" as="sourcePoint" />
          </mxGeometry>
        </mxCell>
        <mxCell id="tmTYmfGG59u52p8sMAlk-20" value="" style="curved=1;startArrow=none;endArrow=block;exitX=0.4994211196899414;exitY=1.0000001733953303;entryX=0.7419572201012223;entryY=1.7339533025568182e-7;rounded=0;" edge="1" parent="1" source="tmTYmfGG59u52p8sMAlk-9" target="tmTYmfGG59u52p8sMAlk-10">
          <mxGeometry relative="1" as="geometry">
            <Array as="points" />
          </mxGeometry>
        </mxCell>
        <mxCell id="tmTYmfGG59u52p8sMAlk-21" value="" style="curved=1;startArrow=none;endArrow=block;exitX=0.49843475944117493;exitY=1.0121214317552971;entryX=0.4976644316268841;entryY=0.012121431755297112;rounded=0;" edge="1" parent="1" source="tmTYmfGG59u52p8sMAlk-10">
          <mxGeometry relative="1" as="geometry">
            <Array as="points" />
            <mxPoint x="205.04282316512672" y="480" as="targetPoint" />
          </mxGeometry>
        </mxCell>
        <mxCell id="tmTYmfGG59u52p8sMAlk-22" value="Sí" style="curved=1;startArrow=none;endArrow=block;exitX=1;exitY=0.5;entryX=0.0002888171608877365;entryY=0.1086752792369666;rounded=0;exitDx=0;exitDy=0;" edge="1" parent="1" source="tmTYmfGG59u52p8sMAlk-32" target="tmTYmfGG59u52p8sMAlk-2">
          <mxGeometry relative="1" as="geometry">
            <Array as="points">
              <mxPoint x="410" y="420" />
            </Array>
            <mxPoint x="301" y="496.5" as="sourcePoint" />
          </mxGeometry>
        </mxCell>
        <mxCell id="tmTYmfGG59u52p8sMAlk-23" value="No" style="curved=1;startArrow=none;endArrow=block;exitX=0;exitY=0.5;entryX=0.011803163064492715;entryY=0.28784060065033895;rounded=0;exitDx=0;exitDy=0;" edge="1" parent="1" source="tmTYmfGG59u52p8sMAlk-32" target="tmTYmfGG59u52p8sMAlk-15">
          <mxGeometry relative="1" as="geometry">
            <Array as="points">
              <mxPoint x="123" y="1163" />
            </Array>
            <mxPoint x="179.54265318940702" y="512.9999999999998" as="sourcePoint" />
          </mxGeometry>
        </mxCell>
        <mxCell id="tmTYmfGG59u52p8sMAlk-24" value="" style="curved=1;startArrow=none;endArrow=block;exitX=0.5004803997346725;exitY=1.0181821187337239;entryX=0.5;entryY=0;rounded=0;entryDx=0;entryDy=0;" edge="1" parent="1" source="tmTYmfGG59u52p8sMAlk-2" target="tmTYmfGG59u52p8sMAlk-33">
          <mxGeometry relative="1" as="geometry">
            <Array as="points">
              <mxPoint x="630" y="510" />
            </Array>
            <mxPoint x="515" y="628.4438874257505" as="targetPoint" />
          </mxGeometry>
        </mxCell>
        <mxCell id="tmTYmfGG59u52p8sMAlk-25" value="Sí" style="curved=1;startArrow=none;endArrow=block;exitX=0;exitY=0.5;entryX=0.17524345257437302;entryY=-0.0060601089939926606;rounded=0;exitDx=0;exitDy=0;" edge="1" parent="1" source="tmTYmfGG59u52p8sMAlk-33" target="tmTYmfGG59u52p8sMAlk-15">
          <mxGeometry relative="1" as="geometry">
            <Array as="points">
              <mxPoint x="202" y="758" />
              <mxPoint x="202" y="1163" />
            </Array>
            <mxPoint x="407.0411778742159" y="651.5" as="sourcePoint" />
          </mxGeometry>
        </mxCell>
        <mxCell id="tmTYmfGG59u52p8sMAlk-26" value="No" style="curved=1;startArrow=none;endArrow=block;exitX=1;exitY=0.5;entryX=0.01102965678598464;entryY=0.012121547352183949;rounded=0;exitDx=0;exitDy=0;" edge="1" parent="1" source="tmTYmfGG59u52p8sMAlk-33" target="tmTYmfGG59u52p8sMAlk-3">
          <mxGeometry relative="1" as="geometry">
            <Array as="points" />
            <mxPoint x="480.36802747387674" y="651.5" as="sourcePoint" />
          </mxGeometry>
        </mxCell>
        <mxCell id="tmTYmfGG59u52p8sMAlk-27" value="" style="curved=1;startArrow=none;endArrow=block;exitX=0.49869925114843583;exitY=1.0242428057121509;entryX=0.5002869206653306;entryY=0.006060975970643939;rounded=0;" edge="1" parent="1" source="tmTYmfGG59u52p8sMAlk-3" target="tmTYmfGG59u52p8sMAlk-4">
          <mxGeometry relative="1" as="geometry">
            <Array as="points" />
          </mxGeometry>
        </mxCell>
        <mxCell id="tmTYmfGG59u52p8sMAlk-28" value="" style="curved=1;startArrow=none;endArrow=block;exitX=0.5002869206653306;exitY=1.0181822343306108;entryX=0.5006937392346271;entryY=4.0458910392992425e-7;rounded=0;" edge="1" parent="1" source="tmTYmfGG59u52p8sMAlk-4" target="tmTYmfGG59u52p8sMAlk-13">
          <mxGeometry relative="1" as="geometry">
            <Array as="points">
              <mxPoint x="680" y="890" />
            </Array>
          </mxGeometry>
        </mxCell>
        <mxCell id="tmTYmfGG59u52p8sMAlk-29" value="" style="curved=1;startArrow=none;endArrow=block;exitX=0.5006937392346271;exitY=1.0121216629490708;entryX=0.5012871788208744;entryY=0.012121662949070786;rounded=0;" edge="1" parent="1" source="tmTYmfGG59u52p8sMAlk-13" target="tmTYmfGG59u52p8sMAlk-14">
          <mxGeometry relative="1" as="geometry">
            <Array as="points" />
          </mxGeometry>
        </mxCell>
        <mxCell id="tmTYmfGG59u52p8sMAlk-30" value="" style="curved=1;startArrow=none;endArrow=block;exitX=0;exitY=0.5;entryX=0.5;entryY=1;rounded=0;entryDx=0;entryDy=0;exitDx=0;exitDy=0;" edge="1" parent="1" source="tmTYmfGG59u52p8sMAlk-14">
          <mxGeometry relative="1" as="geometry">
            <Array as="points">
              <mxPoint x="280" y="1120" />
              <mxPoint x="190" y="1070" />
              <mxPoint x="280" y="880" />
            </Array>
            <mxPoint x="422.5" y="651.5" as="targetPoint" />
          </mxGeometry>
        </mxCell>
        <mxCell id="tmTYmfGG59u52p8sMAlk-31" value="Estado actualizado" style="rhombus;whiteSpace=wrap;html=1;" vertex="1" parent="1">
          <mxGeometry x="165.5" y="210" width="80" height="80" as="geometry" />
        </mxCell>
        <mxCell id="tmTYmfGG59u52p8sMAlk-32" value="Existen posibles retrasos" style="rhombus;whiteSpace=wrap;html=1;" vertex="1" parent="1">
          <mxGeometry x="165.5" y="480" width="80" height="80" as="geometry" />
        </mxCell>
        <mxCell id="tmTYmfGG59u52p8sMAlk-33" value="Se ha cumplido&amp;nbsp;&lt;div&gt;con las condiciones de plazo&lt;/div&gt;" style="rhombus;whiteSpace=wrap;html=1;" vertex="1" parent="1">
          <mxGeometry x="390" y="588" width="130" height="90" as="geometry" />
        </mxCell>
      </root>
    </mxGraphModel>
  </diagram>
</mxfile>
